<svg width="600" height="600" viewBox="0 0 600 600" fill="none" xmlns="http://www.w3.org/2000/svg">
<path fill-rule="evenodd" clip-rule="evenodd" d="M600 0H0V600H600V0ZM300 540C432.548 540 540 432.548 540 300C540 167.452 432.548 60 300 60C278.676 60 258.003 62.7809 238.321 67.9997L266.021 171.38C276.868 168.522 288.256 167 300 167C373.454 167 433 226.546 433 300C433 373.454 373.454 433 300 433C288.146 433 276.654 431.449 265.716 428.539L238.015 531.919C257.789 537.19 278.566 540 300 540Z" fill="#323232"/>
<path fill-rule="evenodd" clip-rule="evenodd" d="M380.785 220.211L300.748 173.432L301.253 172.568L379.783 218.467L363.567 190.249L364.434 189.751L381.519 219.482L411.001 236.714L410.868 270.554L428.078 300.502L410.633 330.35L410.499 364.29L380.864 381.283L363.932 410.252L363.069 409.748L379.122 382.282L301.249 426.934L300.752 426.066L380.135 380.548L409.634 330.078L409.867 270.819L380.785 220.211ZM382.521 221.226L409.875 268.826L409.999 237.286L382.521 221.226ZM410.86 272.547L410.641 328.355L426.922 300.498L410.86 272.547ZM409.626 332.073L381.877 379.549L409.501 363.71L409.626 332.073Z" fill="#9DFFD6"/>
<path fill-rule="evenodd" clip-rule="evenodd" d="M335.11 300.39L363.983 409.873L363.016 410.128L334.591 302.34L301.482 426.629L300.516 426.371L334.076 300.388L300.516 173.128L301.483 172.873L334.596 298.437L363.516 189.871L364.482 190.129L335.11 300.39Z" fill="#9DA7FF"/>
<path d="M433.52 84.86C433.52 84.9667 433.433 85.02 433.26 85.02C433.167 85.02 433.08 85.0133 433 85C432.2 84.96 431.513 84.94 430.94 84.94C430.34 84.94 429.46 84.96 428.3 85C427.913 85.0133 427.627 85.02 427.44 85.02C427.24 85.02 427.14 84.96 427.14 84.84C427.14 84.7733 427.173 84.7333 427.24 84.72C427.32 84.7067 427.58 84.6933 428.02 84.68C428.433 84.6 428.673 84.48 428.74 84.32C428.807 84.1467 428.84 83.6067 428.84 82.7V73.08C428.84 72.8267 428.84 72.58 428.84 72.34C428.827 72.1 428.82 71.9867 428.82 72C428.82 71.6667 428.487 71.5 427.82 71.5C427.447 71.5 427.26 71.4533 427.26 71.36C427.26 71.2667 427.287 71.2133 427.34 71.2C427.393 71.1867 427.567 71.18 427.86 71.18C427.727 71.18 427.967 71.1867 428.58 71.2C429.193 71.2133 429.72 71.22 430.16 71.22H431.18C431.393 71.22 431.693 71.2133 432.08 71.2C432.48 71.1733 432.76 71.16 432.92 71.16H433.12C433.293 71.16 433.38 71.2133 433.38 71.32C433.38 71.4 433.347 71.4533 433.28 71.48C433.227 71.4933 433.027 71.5067 432.68 71.52C432.267 71.5467 432.013 71.6333 431.92 71.78L431.86 72.16V83.46C431.86 84.0333 431.92 84.3733 432.04 84.48C432.173 84.5867 432.607 84.66 433.34 84.7C433.46 84.7133 433.52 84.7667 433.52 84.86Z" fill="#BB3F3F"/>
<path d="M530.32 165.34C530.32 165.433 530.253 165.487 530.12 165.5C529.413 165.527 528.967 165.607 528.78 165.74C528.607 165.873 528.413 166.253 528.2 166.88C528.093 167.173 527.933 167.62 527.72 168.22C527.013 170.18 525.873 173.487 524.3 178.14C524.087 178.807 523.933 179.14 523.84 179.14C523.72 179.14 523.62 179.02 523.54 178.78C523.367 178.233 523.147 177.613 522.88 176.92C522.48 175.84 521.94 174.407 521.26 172.62C520.967 171.833 520.513 170.667 519.9 169.12C519.567 168.28 519.233 167.347 518.9 166.32C518.727 165.76 518.367 165.487 517.82 165.5L517.16 165.52C517 165.52 516.92 165.46 516.92 165.34C516.92 165.22 517.16 165.16 517.64 165.16L521.02 165.18C521.167 165.18 521.347 165.18 521.56 165.18C521.787 165.167 522.04 165.16 522.32 165.16H523.44C523.693 165.16 523.82 165.22 523.82 165.34C523.82 165.447 523.587 165.507 523.12 165.52C522.36 165.533 521.98 165.653 521.98 165.88C521.98 165.907 522.093 166.26 522.32 166.94C523.333 169.98 524.227 172.467 525 174.4C525.173 173.973 525.493 173.087 525.96 171.74C526.08 171.38 526.36 170.567 526.8 169.3C527.427 167.473 527.74 166.36 527.74 165.96C527.74 165.72 527.64 165.58 527.44 165.54C527.36 165.527 527.053 165.513 526.52 165.5C526.253 165.5 526.12 165.433 526.12 165.3C526.12 165.18 526.213 165.12 526.4 165.12H527.34L528.04 165.14H528.56C528.693 165.14 528.847 165.133 529.02 165.12C529.207 165.12 529.42 165.12 529.66 165.12H530.02C530.22 165.12 530.32 165.193 530.32 165.34Z" fill="#BB3F3F"/>
<path d="M557.301 304.86C557.301 304.967 557.215 305.02 557.041 305.02C556.948 305.02 556.861 305.013 556.781 305C555.981 304.96 555.295 304.94 554.721 304.94C554.121 304.94 553.241 304.96 552.081 305C551.695 305.013 551.408 305.02 551.221 305.02C551.021 305.02 550.921 304.96 550.921 304.84C550.921 304.773 550.955 304.733 551.021 304.72C551.101 304.707 551.361 304.693 551.801 304.68C552.215 304.6 552.455 304.48 552.521 304.32C552.588 304.147 552.621 303.607 552.621 302.7V293.08C552.621 292.827 552.621 292.58 552.621 292.34C552.608 292.1 552.601 291.987 552.601 292C552.601 291.667 552.268 291.5 551.601 291.5C551.228 291.5 551.041 291.453 551.041 291.36C551.041 291.267 551.068 291.213 551.121 291.2C551.175 291.187 551.348 291.18 551.641 291.18C551.508 291.18 551.748 291.187 552.361 291.2C552.975 291.213 553.501 291.22 553.941 291.22H554.961C555.175 291.22 555.475 291.213 555.861 291.2C556.261 291.173 556.541 291.16 556.701 291.16H556.901C557.075 291.16 557.161 291.213 557.161 291.32C557.161 291.4 557.128 291.453 557.061 291.48C557.008 291.493 556.808 291.507 556.461 291.52C556.048 291.547 555.795 291.633 555.701 291.78L555.641 292.16V303.46C555.641 304.033 555.701 304.373 555.821 304.48C555.955 304.587 556.388 304.66 557.121 304.7C557.241 304.713 557.301 304.767 557.301 304.86ZM564.02 304.86C564.02 304.967 563.933 305.02 563.76 305.02C563.667 305.02 563.58 305.013 563.5 305C562.7 304.96 562.013 304.94 561.44 304.94C560.84 304.94 559.96 304.96 558.8 305C558.413 305.013 558.127 305.02 557.94 305.02C557.74 305.02 557.64 304.96 557.64 304.84C557.64 304.773 557.673 304.733 557.74 304.72C557.82 304.707 558.08 304.693 558.52 304.68C558.933 304.6 559.173 304.48 559.24 304.32C559.307 304.147 559.34 303.607 559.34 302.7V293.08C559.34 292.827 559.34 292.58 559.34 292.34C559.327 292.1 559.32 291.987 559.32 292C559.32 291.667 558.987 291.5 558.32 291.5C557.947 291.5 557.76 291.453 557.76 291.36C557.76 291.267 557.787 291.213 557.84 291.2C557.893 291.187 558.067 291.18 558.36 291.18C558.227 291.18 558.467 291.187 559.08 291.2C559.693 291.213 560.22 291.22 560.66 291.22H561.68C561.893 291.22 562.193 291.213 562.58 291.2C562.98 291.173 563.26 291.16 563.42 291.16H563.62C563.793 291.16 563.88 291.213 563.88 291.32C563.88 291.4 563.847 291.453 563.78 291.48C563.727 291.493 563.527 291.507 563.18 291.52C562.767 291.547 562.513 291.633 562.42 291.78L562.36 292.16V303.46C562.36 304.033 562.42 304.373 562.54 304.48C562.673 304.587 563.107 304.66 563.84 304.7C563.96 304.713 564.02 304.767 564.02 304.86Z" fill="#BB3F3F"/>
<path d="M530.787 420.34C530.787 420.433 530.72 420.487 530.587 420.5C529.88 420.527 529.433 420.607 529.247 420.74C529.073 420.873 528.88 421.253 528.667 421.88C528.56 422.173 528.4 422.62 528.187 423.22C527.48 425.18 526.34 428.487 524.767 433.14C524.553 433.807 524.4 434.14 524.307 434.14C524.187 434.14 524.087 434.02 524.007 433.78C523.833 433.233 523.613 432.613 523.347 431.92C522.947 430.84 522.407 429.407 521.727 427.62C521.433 426.833 520.98 425.667 520.367 424.12C520.033 423.28 519.7 422.347 519.367 421.32C519.193 420.76 518.833 420.487 518.287 420.5L517.627 420.52C517.467 420.52 517.387 420.46 517.387 420.34C517.387 420.22 517.627 420.16 518.107 420.16L521.487 420.18C521.633 420.18 521.813 420.18 522.027 420.18C522.253 420.167 522.507 420.16 522.787 420.16H523.907C524.16 420.16 524.287 420.22 524.287 420.34C524.287 420.447 524.053 420.507 523.587 420.52C522.827 420.533 522.447 420.653 522.447 420.88C522.447 420.907 522.56 421.26 522.787 421.94C523.8 424.98 524.693 427.467 525.467 429.4C525.64 428.973 525.96 428.087 526.427 426.74C526.547 426.38 526.827 425.567 527.267 424.3C527.893 422.473 528.207 421.36 528.207 420.96C528.207 420.72 528.107 420.58 527.907 420.54C527.827 420.527 527.52 420.513 526.987 420.5C526.72 420.5 526.587 420.433 526.587 420.3C526.587 420.18 526.68 420.12 526.867 420.12H527.807L528.507 420.14H529.027C529.16 420.14 529.313 420.133 529.487 420.12C529.673 420.12 529.887 420.12 530.127 420.12H530.487C530.687 420.12 530.787 420.193 530.787 420.34ZM539.334 433.86C539.334 433.967 539.248 434.02 539.074 434.02C538.981 434.02 538.894 434.013 538.814 434C538.014 433.96 537.328 433.94 536.754 433.94C536.154 433.94 535.274 433.96 534.114 434C533.728 434.013 533.441 434.02 533.254 434.02C533.054 434.02 532.954 433.96 532.954 433.84C532.954 433.773 532.988 433.733 533.054 433.72C533.134 433.707 533.394 433.693 533.834 433.68C534.248 433.6 534.488 433.48 534.554 433.32C534.621 433.147 534.654 432.607 534.654 431.7V422.08C534.654 421.827 534.654 421.58 534.654 421.34C534.641 421.1 534.634 420.987 534.634 421C534.634 420.667 534.301 420.5 533.634 420.5C533.261 420.5 533.074 420.453 533.074 420.36C533.074 420.267 533.101 420.213 533.154 420.2C533.208 420.187 533.381 420.18 533.674 420.18C533.541 420.18 533.781 420.187 534.394 420.2C535.008 420.213 535.534 420.22 535.974 420.22H536.994C537.208 420.22 537.508 420.213 537.894 420.2C538.294 420.173 538.574 420.16 538.734 420.16H538.934C539.108 420.16 539.194 420.213 539.194 420.32C539.194 420.4 539.161 420.453 539.094 420.48C539.041 420.493 538.841 420.507 538.494 420.52C538.081 420.547 537.828 420.633 537.734 420.78L537.674 421.16V432.46C537.674 433.033 537.734 433.373 537.854 433.48C537.988 433.587 538.421 433.66 539.154 433.7C539.274 433.713 539.334 433.767 539.334 433.86Z" fill="#BB3F3F"/>
<path d="M428.942 530.86C428.942 530.967 428.855 531.02 428.682 531.02C428.589 531.02 428.502 531.013 428.422 531C427.622 530.96 426.935 530.94 426.362 530.94C425.762 530.94 424.882 530.96 423.722 531C423.335 531.013 423.049 531.02 422.862 531.02C422.662 531.02 422.562 530.96 422.562 530.84C422.562 530.773 422.595 530.733 422.662 530.72C422.742 530.707 423.002 530.693 423.442 530.68C423.855 530.6 424.095 530.48 424.162 530.32C424.229 530.147 424.262 529.607 424.262 528.7V519.08C424.262 518.827 424.262 518.58 424.262 518.34C424.249 518.1 424.242 517.987 424.242 518C424.242 517.667 423.909 517.5 423.242 517.5C422.869 517.5 422.682 517.453 422.682 517.36C422.682 517.267 422.709 517.213 422.762 517.2C422.815 517.187 422.989 517.18 423.282 517.18C423.149 517.18 423.389 517.187 424.002 517.2C424.615 517.213 425.142 517.22 425.582 517.22H426.602C426.815 517.22 427.115 517.213 427.502 517.2C427.902 517.173 428.182 517.16 428.342 517.16H428.542C428.715 517.16 428.802 517.213 428.802 517.32C428.802 517.4 428.769 517.453 428.702 517.48C428.649 517.493 428.449 517.507 428.102 517.52C427.689 517.547 427.435 517.633 427.342 517.78L427.282 518.16V529.46C427.282 530.033 427.342 530.373 427.462 530.48C427.595 530.587 428.029 530.66 428.762 530.7C428.882 530.713 428.942 530.767 428.942 530.86ZM435.661 530.86C435.661 530.967 435.574 531.02 435.401 531.02C435.307 531.02 435.221 531.013 435.141 531C434.341 530.96 433.654 530.94 433.081 530.94C432.481 530.94 431.601 530.96 430.441 531C430.054 531.013 429.767 531.02 429.581 531.02C429.381 531.02 429.281 530.96 429.281 530.84C429.281 530.773 429.314 530.733 429.381 530.72C429.461 530.707 429.721 530.693 430.161 530.68C430.574 530.6 430.814 530.48 430.881 530.32C430.947 530.147 430.981 529.607 430.981 528.7V519.08C430.981 518.827 430.981 518.58 430.981 518.34C430.967 518.1 430.961 517.987 430.961 518C430.961 517.667 430.627 517.5 429.961 517.5C429.587 517.5 429.401 517.453 429.401 517.36C429.401 517.267 429.427 517.213 429.481 517.2C429.534 517.187 429.707 517.18 430.001 517.18C429.867 517.18 430.107 517.187 430.721 517.2C431.334 517.213 431.861 517.22 432.301 517.22H433.321C433.534 517.22 433.834 517.213 434.221 517.2C434.621 517.173 434.901 517.16 435.061 517.16H435.261C435.434 517.16 435.521 517.213 435.521 517.32C435.521 517.4 435.487 517.453 435.421 517.48C435.367 517.493 435.167 517.507 434.821 517.52C434.407 517.547 434.154 517.633 434.061 517.78L434.001 518.16V529.46C434.001 530.033 434.061 530.373 434.181 530.48C434.314 530.587 434.747 530.66 435.481 530.7C435.601 530.713 435.661 530.767 435.661 530.86ZM442.379 530.86C442.379 530.967 442.293 531.02 442.119 531.02C442.026 531.02 441.939 531.013 441.859 531C441.059 530.96 440.373 530.94 439.799 530.94C439.199 530.94 438.319 530.96 437.159 531C436.773 531.013 436.486 531.02 436.299 531.02C436.099 531.02 435.999 530.96 435.999 530.84C435.999 530.773 436.033 530.733 436.099 530.72C436.179 530.707 436.439 530.693 436.879 530.68C437.293 530.6 437.533 530.48 437.599 530.32C437.666 530.147 437.699 529.607 437.699 528.7V519.08C437.699 518.827 437.699 518.58 437.699 518.34C437.686 518.1 437.679 517.987 437.679 518C437.679 517.667 437.346 517.5 436.679 517.5C436.306 517.5 436.119 517.453 436.119 517.36C436.119 517.267 436.146 517.213 436.199 517.2C436.253 517.187 436.426 517.18 436.719 517.18C436.586 517.18 436.826 517.187 437.439 517.2C438.053 517.213 438.579 517.22 439.019 517.22H440.039C440.253 517.22 440.553 517.213 440.939 517.2C441.339 517.173 441.619 517.16 441.779 517.16H441.979C442.153 517.16 442.239 517.213 442.239 517.32C442.239 517.4 442.206 517.453 442.139 517.48C442.086 517.493 441.886 517.507 441.539 517.52C441.126 517.547 440.873 517.633 440.779 517.78L440.719 518.16V529.46C440.719 530.033 440.779 530.373 440.899 530.48C441.033 530.587 441.466 530.66 442.199 530.7C442.319 530.713 442.379 530.767 442.379 530.86Z" fill="#BB3F3F"/>
<path d="M297.927 550.34C297.927 550.433 297.861 550.487 297.727 550.5C297.021 550.527 296.574 550.607 296.387 550.74C296.214 550.873 296.021 551.253 295.807 551.88C295.701 552.173 295.541 552.62 295.327 553.22C294.621 555.18 293.481 558.487 291.907 563.14C291.694 563.807 291.541 564.14 291.447 564.14C291.327 564.14 291.227 564.02 291.147 563.78C290.974 563.233 290.754 562.613 290.487 561.92C290.087 560.84 289.547 559.407 288.867 557.62C288.574 556.833 288.121 555.667 287.507 554.12C287.174 553.28 286.841 552.347 286.507 551.32C286.334 550.76 285.974 550.487 285.427 550.5L284.767 550.52C284.607 550.52 284.527 550.46 284.527 550.34C284.527 550.22 284.767 550.16 285.247 550.16L288.627 550.18C288.774 550.18 288.954 550.18 289.167 550.18C289.394 550.167 289.647 550.16 289.927 550.16H291.047C291.301 550.16 291.427 550.22 291.427 550.34C291.427 550.447 291.194 550.507 290.727 550.52C289.967 550.533 289.587 550.653 289.587 550.88C289.587 550.907 289.701 551.26 289.927 551.94C290.941 554.98 291.834 557.467 292.607 559.4C292.781 558.973 293.101 558.087 293.567 556.74C293.687 556.38 293.967 555.567 294.407 554.3C295.034 552.473 295.347 551.36 295.347 550.96C295.347 550.72 295.247 550.58 295.047 550.54C294.967 550.527 294.661 550.513 294.127 550.5C293.861 550.5 293.727 550.433 293.727 550.3C293.727 550.18 293.821 550.12 294.007 550.12H294.947L295.647 550.14H296.167C296.301 550.14 296.454 550.133 296.627 550.12C296.814 550.12 297.027 550.12 297.267 550.12H297.627C297.827 550.12 297.927 550.193 297.927 550.34ZM306.475 563.86C306.475 563.967 306.388 564.02 306.215 564.02C306.122 564.02 306.035 564.013 305.955 564C305.155 563.96 304.468 563.94 303.895 563.94C303.295 563.94 302.415 563.96 301.255 564C300.868 564.013 300.582 564.02 300.395 564.02C300.195 564.02 300.095 563.96 300.095 563.84C300.095 563.773 300.128 563.733 300.195 563.72C300.275 563.707 300.535 563.693 300.975 563.68C301.388 563.6 301.628 563.48 301.695 563.32C301.762 563.147 301.795 562.607 301.795 561.7V552.08C301.795 551.827 301.795 551.58 301.795 551.34C301.782 551.1 301.775 550.987 301.775 551C301.775 550.667 301.442 550.5 300.775 550.5C300.402 550.5 300.215 550.453 300.215 550.36C300.215 550.267 300.242 550.213 300.295 550.2C300.348 550.187 300.522 550.18 300.815 550.18C300.682 550.18 300.922 550.187 301.535 550.2C302.148 550.213 302.675 550.22 303.115 550.22H304.135C304.348 550.22 304.648 550.213 305.035 550.2C305.435 550.173 305.715 550.16 305.875 550.16H306.075C306.248 550.16 306.335 550.213 306.335 550.32C306.335 550.4 306.302 550.453 306.235 550.48C306.182 550.493 305.982 550.507 305.635 550.52C305.222 550.547 304.968 550.633 304.875 550.78L304.815 551.16V562.46C304.815 563.033 304.875 563.373 304.995 563.48C305.128 563.587 305.562 563.66 306.295 563.7C306.415 563.713 306.475 563.767 306.475 563.86ZM316.194 563.86C316.194 563.967 316.107 564.02 315.934 564.02C315.84 564.02 315.754 564.013 315.674 564C314.874 563.96 314.187 563.94 313.614 563.94C313.014 563.94 312.134 563.96 310.974 564C310.587 564.013 310.3 564.02 310.114 564.02C309.914 564.02 309.814 563.96 309.814 563.84C309.814 563.773 309.847 563.733 309.914 563.72C309.994 563.707 310.254 563.693 310.694 563.68C311.107 563.6 311.347 563.48 311.414 563.32C311.48 563.147 311.514 562.607 311.514 561.7V552.08C311.514 551.827 311.514 551.58 311.514 551.34C311.5 551.1 311.494 550.987 311.494 551C311.494 550.667 311.16 550.5 310.494 550.5C310.12 550.5 309.934 550.453 309.934 550.36C309.934 550.267 309.96 550.213 310.014 550.2C310.067 550.187 310.24 550.18 310.534 550.18C310.4 550.18 310.64 550.187 311.254 550.2C311.867 550.213 312.394 550.22 312.834 550.22H313.854C314.067 550.22 314.367 550.213 314.754 550.2C315.154 550.173 315.434 550.16 315.594 550.16H315.794C315.967 550.16 316.054 550.213 316.054 550.32C316.054 550.4 316.02 550.453 315.954 550.48C315.9 550.493 315.7 550.507 315.354 550.52C314.94 550.547 314.687 550.633 314.594 550.78L314.534 551.16V562.46C314.534 563.033 314.594 563.373 314.714 563.48C314.847 563.587 315.28 563.66 316.014 563.7C316.134 563.713 316.194 563.767 316.194 563.86Z" fill="#BB3F3F"/>
<path d="M297.487 49.86C297.487 49.9667 297.4 50.02 297.227 50.02C297.133 50.02 297.047 50.0133 296.967 50C296.167 49.96 295.48 49.94 294.907 49.94C294.307 49.94 293.427 49.96 292.267 50C291.88 50.0133 291.593 50.02 291.407 50.02C291.207 50.02 291.107 49.96 291.107 49.84C291.107 49.7733 291.14 49.7333 291.207 49.72C291.287 49.7067 291.547 49.6933 291.987 49.68C292.4 49.6 292.64 49.48 292.707 49.32C292.773 49.1467 292.807 48.6067 292.807 47.7V38.08C292.807 37.8267 292.807 37.58 292.807 37.34C292.793 37.1 292.787 36.9867 292.787 37C292.787 36.6667 292.453 36.5 291.787 36.5C291.413 36.5 291.227 36.4533 291.227 36.36C291.227 36.2667 291.253 36.2133 291.307 36.2C291.36 36.1867 291.533 36.18 291.827 36.18C291.693 36.18 291.933 36.1867 292.547 36.2C293.16 36.2133 293.687 36.22 294.127 36.22H295.147C295.36 36.22 295.66 36.2133 296.047 36.2C296.447 36.1733 296.727 36.16 296.887 36.16H297.087C297.26 36.16 297.347 36.2133 297.347 36.32C297.347 36.4 297.313 36.4533 297.247 36.48C297.193 36.4933 296.993 36.5067 296.647 36.52C296.233 36.5467 295.98 36.6333 295.887 36.78L295.827 37.16V48.46C295.827 49.0333 295.887 49.3733 296.007 49.48C296.14 49.5867 296.573 49.66 297.307 49.7C297.427 49.7133 297.487 49.7667 297.487 49.86ZM313.006 36.34C313.006 36.4333 312.939 36.4867 312.806 36.5C312.099 36.5267 311.652 36.6067 311.466 36.74C311.292 36.8733 311.099 37.2533 310.886 37.88C310.779 38.1733 310.619 38.62 310.406 39.22C309.699 41.18 308.559 44.4867 306.986 49.14C306.772 49.8067 306.619 50.14 306.526 50.14C306.406 50.14 306.306 50.02 306.226 49.78C306.052 49.2333 305.832 48.6133 305.566 47.92C305.166 46.84 304.626 45.4067 303.946 43.62C303.652 42.8333 303.199 41.6667 302.586 40.12C302.252 39.28 301.919 38.3467 301.586 37.32C301.412 36.76 301.052 36.4867 300.506 36.5L299.846 36.52C299.686 36.52 299.606 36.46 299.606 36.34C299.606 36.22 299.846 36.16 300.326 36.16L303.706 36.18C303.852 36.18 304.032 36.18 304.246 36.18C304.472 36.1667 304.726 36.16 305.006 36.16H306.126C306.379 36.16 306.506 36.22 306.506 36.34C306.506 36.4467 306.272 36.5067 305.806 36.52C305.046 36.5333 304.666 36.6533 304.666 36.88C304.666 36.9067 304.779 37.26 305.006 37.94C306.019 40.98 306.912 43.4667 307.686 45.4C307.859 44.9733 308.179 44.0867 308.646 42.74C308.766 42.38 309.046 41.5667 309.486 40.3C310.112 38.4733 310.426 37.36 310.426 36.96C310.426 36.72 310.326 36.58 310.126 36.54C310.046 36.5267 309.739 36.5133 309.206 36.5C308.939 36.5 308.806 36.4333 308.806 36.3C308.806 36.18 308.899 36.12 309.086 36.12H310.026L310.726 36.14H311.246C311.379 36.14 311.532 36.1333 311.706 36.12C311.892 36.12 312.106 36.12 312.346 36.12H312.706C312.906 36.12 313.006 36.1933 313.006 36.34Z" fill="#BB3F3F"/>
</svg>
