<svg width="500" height="500" viewBox="0 0 500 500" fill="none" xmlns="http://www.w3.org/2000/svg">
<path d="M500 250C500 388.071 388.071 500 250 500C111.929 500 0 388.071 0 250C0 111.929 111.929 0 250 0C388.071 0 500 111.929 500 250Z" fill="#2D2D2D"/>
<path d="M276 40C276 53.2548 265.255 64 252 64C238.745 64 228 53.2548 228 40C228 26.7452 238.745 16 252 16C265.255 16 276 26.7452 276 40Z" fill="#1C1919"/>
<path d="M380 70C380 83.2548 369.255 94 356 94C342.745 94 332 83.2548 332 70C332 56.7452 342.745 46 356 46C369.255 46 380 56.7452 380 70Z" fill="#1C1919"/>
<path d="M455 145C455 158.255 444.255 169 431 169C417.745 169 407 158.255 407 145C407 131.745 417.745 121 431 121C444.255 121 455 131.745 455 145Z" fill="#1C1919"/>
<path d="M257.337 41.459L251.535 41.459V49L247.803 49L247.803 30.5156L258.035 30.5156V33.626L251.535 33.626V38.3613L257.337 38.3613V41.459Z" fill="#DADADA"/>
<path d="M428.971 153.041C427.937 152.807 426.985 152.335 426.116 151.625C425.258 150.919 424.519 150.026 423.897 148.949C422.834 147.109 422.577 145.352 423.125 143.677C423.68 141.998 425.038 140.516 427.198 139.229L430.078 137.566C432.285 136.293 434.259 135.793 436 136.068C437.754 136.345 439.164 137.408 440.23 139.255C441.233 140.992 441.559 142.548 441.21 143.923C440.864 145.305 439.815 146.594 438.063 147.791L436.248 144.647C437.216 143.971 437.786 143.358 437.958 142.81C438.137 142.257 438.019 141.621 437.604 140.903C437.101 140.03 436.416 139.581 435.55 139.553C434.684 139.525 433.55 139.906 432.149 140.696L429.246 142.371C427.788 143.213 426.85 144.043 426.432 144.861C426.027 145.681 426.112 146.59 426.687 147.587C427.055 148.225 427.482 148.667 427.967 148.915L428.33 149.087L431.265 147.392L429.958 145.127L432.399 143.718L435.579 149.226L428.971 153.041Z" fill="#DADADA"/>
<path d="M360.387 75.2119C359.253 76.9905 357.942 78.0759 356.455 78.4682C354.968 78.8605 353.363 78.5594 351.64 77.5649C349.83 76.5197 348.784 75.124 348.502 73.378C348.231 71.6289 348.733 69.6513 350.007 67.4451L351.562 64.7514C352.832 62.5525 354.307 61.1471 355.99 60.5353C357.676 59.9161 359.407 60.1185 361.18 61.1426C362.925 62.1497 363.966 63.401 364.305 64.8963C364.651 66.3959 364.36 68.0942 363.431 69.9912L360.187 68.1187C360.81 66.973 361.082 66.0945 361.005 65.4832C360.94 64.8688 360.482 64.3161 359.632 63.8252C358.767 63.3259 357.979 63.2767 357.269 63.6777C356.563 64.0714 355.799 64.9545 354.977 66.3271L353.231 69.3506C352.313 70.9411 351.858 72.1348 351.867 72.9316C351.884 73.7327 352.324 74.3829 353.189 74.8823C354.039 75.3731 354.744 75.5065 355.304 75.2822C355.868 75.0506 356.485 74.4051 357.155 73.3457L360.387 75.2119Z" fill="#DADADA"/>
<path d="M459 272C445.745 272 435 261.255 435 248C435 234.745 445.745 224 459 224C472.255 224 483 234.745 483 248C483 261.255 472.255 272 459 272Z" fill="#1C1919"/>
<path d="M450 242.635L468.484 242.635L468.484 247.522C468.484 249.681 467.799 251.399 466.428 252.677C465.057 253.963 463.178 254.619 460.791 254.645L457.795 254.645C455.366 254.645 453.457 254.001 452.069 252.715C450.69 251.437 450 249.672 450 247.421L450 242.635ZM465.374 246.367L453.098 246.367L453.098 247.484C453.098 248.729 453.424 249.604 454.075 250.112C454.735 250.62 455.869 250.887 457.478 250.912L460.689 250.912C462.416 250.912 463.618 250.671 464.295 250.188C464.98 249.706 465.34 248.885 465.374 247.726L465.374 246.367Z" fill="#DADADA"/>
<path d="M227 460C227 446.745 237.745 436 251 436C264.255 436 275 446.745 275 460C275 473.255 264.255 484 251 484C237.745 484 227 473.255 227 460Z" fill="#1C1919"/>
<path d="M256.314 451L256.314 469.484L250.602 469.484C248.672 469.484 247.208 469.053 246.209 468.189C245.202 467.335 244.698 466.078 244.698 464.419C244.698 463.479 244.906 462.671 245.32 461.994C245.735 461.317 246.302 460.822 247.021 460.509C246.192 460.272 245.553 459.794 245.104 459.074C244.656 458.363 244.432 457.483 244.432 456.434C244.432 454.639 244.927 453.285 245.917 452.371C246.899 451.457 248.325 451 250.195 451L256.314 451ZM252.582 459.036L252.582 454.098L250.195 454.098C249.527 454.098 249.019 454.305 248.672 454.72C248.325 455.134 248.151 455.723 248.151 456.484C248.151 458.143 248.752 458.994 249.954 459.036L252.582 459.036ZM252.582 461.753L250.64 461.753C249.175 461.753 248.443 462.51 248.443 464.025C248.443 464.863 248.613 465.464 248.951 465.828C249.29 466.192 249.84 466.374 250.602 466.374L252.582 466.374L252.582 461.753Z" fill="#DADADA"/>
<path d="M334.669 444.445C328.042 432.966 331.975 418.288 343.454 411.66C354.933 405.033 369.611 408.966 376.238 420.445C382.866 431.924 378.933 446.602 367.454 453.229C355.975 459.857 341.296 455.924 334.669 444.445Z" fill="#1C1919"/>
<path d="M350.497 434.151L355.532 431.243L353.082 426.999L347.123 430.44L345.574 427.757L354.766 422.451L364.008 438.458L354.838 443.752L353.283 441.059L359.22 437.631L357.037 433.849L352.001 436.756L350.497 434.151Z" fill="#DADADA"/>
<path d="M418.946 374.569C407.467 367.942 403.534 353.264 410.161 341.785C416.789 330.306 431.467 326.373 442.946 333C454.425 339.627 458.358 354.306 451.73 365.785C445.103 377.264 430.425 381.197 418.946 374.569Z" fill="#1C1919"/>
<path d="M424.908 353.808L427.453 349.399L424.672 346.65L426.646 343.231L439.766 357.476L438.059 360.433L419.143 356.226L421.137 352.774L424.908 353.808ZM429.741 351.658L428.014 354.649L434.584 356.448L429.741 351.658Z" fill="#DADADA"/>
<path d="M122 430C122 416.745 132.745 406 146 406C159.255 406 170 416.745 170 430C170 443.255 159.255 454 146 454C132.745 454 122 443.255 122 430Z" fill="#1C1919"/>
<path d="M47 355C47 341.745 57.7452 331 71 331C84.2548 331 95 341.745 95 355C95 368.255 84.2548 379 71 379C57.7452 379 47 368.255 47 355Z" fill="#1C1919"/>
<path d="M72.8613 354.795C74.733 353.822 76.4108 353.538 77.8949 353.942C79.379 354.345 80.6183 355.409 81.6128 357.131C82.658 358.942 82.8662 360.673 82.2374 362.326C81.597 363.976 80.1738 365.438 77.9675 366.712L75.2739 368.267C73.075 369.537 71.0941 370.016 69.3312 369.704C67.5609 369.397 66.1637 368.357 65.1396 366.583C64.1325 364.839 63.8561 363.234 64.3104 361.77C64.7605 360.298 65.8621 358.973 67.6153 357.795L69.4878 361.038C68.376 361.719 67.7006 362.344 67.4617 362.912C67.2112 363.477 67.3314 364.184 67.8223 365.034C68.3216 365.899 68.9792 366.336 69.7949 366.344C70.6033 366.356 71.7065 365.973 73.1045 365.195L76.128 363.45C77.7185 362.531 78.709 361.725 79.0996 361.03C79.486 360.328 79.4295 359.545 78.9301 358.68C78.4392 357.83 77.8955 357.362 77.2988 357.276C76.6948 357.195 75.8377 357.446 74.7275 358.028L72.8613 354.795Z" fill="#DADADA"/>
<path d="M69.6932 347.404L70.5438 348.877L75.4261 346.923L76.5369 348.847L71.6483 350.79L72.8099 352.802L70.9079 353.9L69.5876 351.613L66.2096 352.948L67.3966 355.004L65.4835 356.109L64.1378 353.778L59.1769 355.748L58.0724 353.835L63.0333 351.865L62.1764 350.38L57.2155 352.35L56.111 350.437L61.0719 348.467L59.9357 346.499L61.8487 345.395L63.1436 347.638L66.5217 346.303L65.3664 344.302L67.2684 343.204L68.5824 345.48L73.471 343.537L74.5818 345.461L69.6932 347.404ZM68.4831 349.7L67.6262 348.216L64.2545 349.562L65.1051 351.035L68.4831 349.7Z" fill="#DADADA"/>
<path d="M148.387 430.296L153.411 433.197L157.182 426.666L160.414 428.533L151.172 444.541L142.31 439.424L143.866 436.731L149.495 439.981L151.862 435.88L146.838 432.979L148.387 430.296Z" fill="#DADADA"/>
<path d="M142.177 424.014L143.651 424.865L146.902 420.731L148.826 421.842L145.564 425.969L147.576 427.131L146.478 429.033L144.191 427.712L141.933 430.557L143.988 431.744L142.884 433.657L140.553 432.312L137.242 436.498L135.329 435.394L138.64 431.207L137.156 430.35L133.845 434.537L131.932 433.432L135.243 429.246L133.275 428.109L134.379 426.196L136.622 427.491L138.88 424.646L136.879 423.491L137.978 421.589L140.253 422.903L143.516 418.776L145.44 419.887L142.177 424.014ZM142.278 426.608L140.793 425.751L138.546 428.602L140.019 429.453L142.278 426.608Z" fill="#DADADA"/>
<path d="M43 228C56.2548 228 67 238.745 67 252C67 265.255 56.2548 276 43 276C29.7452 276 19 265.255 19 252C19 238.745 29.7452 228 43 228Z" fill="#1C1919"/>
<path d="M49.9053 251.906C50.6839 252.626 51.2721 253.51 51.6699 254.56C52.0592 255.601 52.2539 256.743 52.2539 257.987C52.2539 260.112 51.598 261.762 50.2861 262.938C48.9658 264.115 47.0488 264.72 44.5352 264.754L41.209 264.754C38.6615 264.754 36.7021 264.2 35.3311 263.091C33.9515 261.974 33.2617 260.349 33.2617 258.216C33.2617 256.21 33.7568 254.699 34.7471 253.684C35.7373 252.66 37.2904 252.067 39.4063 251.906L39.4063 255.537C38.2298 255.639 37.43 255.884 37.0068 256.273C36.5752 256.663 36.3594 257.272 36.3594 258.102C36.3594 259.109 36.7275 259.841 37.4639 260.298C38.2002 260.755 39.3724 260.992 40.9805 261.009L44.332 261.009C46.0163 261.009 47.2435 260.759 48.0137 260.26C48.7754 259.752 49.1563 258.923 49.1563 257.771C49.1563 257.035 49.0081 256.438 48.7119 255.981L48.4834 255.651L45.0938 255.651L45.0938 258.267L42.2754 258.267L42.2754 251.906L49.9053 251.906Z" fill="#DADADA"/>
<path d="M46.7949 243.578L46.7949 245.279L52 246.028L52 248.25L46.7949 247.488L46.7949 249.812L44.5986 249.812L44.5986 247.171L41.0059 246.638L41.0059 249.012L38.7969 249.012L38.7969 246.32L33.5156 245.546L33.5156 243.337L38.7969 244.111L38.7969 242.397L33.5156 241.623L33.5156 239.414L38.7969 240.188L38.7969 237.916L41.0059 237.916L41.0059 240.506L44.5986 241.039L44.5986 238.729L46.7949 238.729L46.7949 241.356L52 242.118L52 244.34L46.7949 243.578ZM44.5986 244.962L44.5986 243.248L41.0059 242.728L41.0059 244.429L44.5986 244.962Z" fill="#DADADA"/>
<path d="M167.331 55.5551C173.958 67.0342 170.025 81.7123 158.546 88.3397C147.067 94.9672 132.389 91.0341 125.762 79.5551C119.134 68.0761 123.067 53.3979 134.546 46.7705C146.025 40.1431 160.704 44.0761 167.331 55.5551Z" fill="#1C1919"/>
<path d="M145.849 73.9811L141.44 76.5265L142.474 80.298L139.055 82.2721L134.815 63.376L137.772 61.6685L152.05 74.7692L148.598 76.7623L145.849 73.9811ZM140.588 73.4266L143.579 71.7001L138.789 66.8572L140.588 73.4266Z" fill="#DADADA"/>
<path d="M155.879 66.5481L154.406 67.3987L156.36 72.2809L154.436 73.3917L152.493 68.5031L150.481 69.6648L149.383 67.7627L151.67 66.4424L150.335 63.0644L148.279 64.2514L147.175 62.3383L149.506 60.9926L147.536 56.0317L149.449 54.9272L151.419 59.8882L152.903 59.0312L150.933 54.0703L152.846 52.9658L154.816 57.9267L156.784 56.7905L157.888 58.7035L155.645 59.9985L156.98 63.3765L158.981 62.2212L160.079 64.1233L157.803 65.4372L159.746 70.3258L157.822 71.4367L155.879 66.5481ZM153.583 65.3379L155.067 64.481L153.721 61.1093L152.248 61.9599L153.583 65.3379Z" fill="#DADADA"/>
<path d="M83.0541 125.431C94.5332 132.058 98.4662 146.736 91.8387 158.215C85.2113 169.694 70.5332 173.627 59.0541 167C47.5751 160.373 43.6421 145.694 50.2695 134.215C56.897 122.736 71.5751 118.803 83.0541 125.431Z" fill="#1C1919"/>
<path d="M72.7384 161.299L56.7305 152.057L59.1743 147.824C60.2534 145.955 61.7062 144.81 63.5326 144.388C65.3632 143.96 67.3183 144.331 69.398 145.503L71.9927 147.001C74.0963 148.215 75.4275 149.726 75.9863 151.535C76.5421 153.331 76.2571 155.204 75.1315 157.154L72.7384 161.299ZM61.2903 150.379L71.922 156.518L72.4806 155.55C73.1026 154.473 73.2584 153.551 72.948 152.785C72.6301 152.016 71.7813 151.218 70.4013 150.392L67.6197 148.786C66.1245 147.922 64.9631 147.53 64.1355 147.61C63.3006 147.685 62.5786 148.216 61.9695 149.203L61.2903 150.379Z" fill="#DADADA"/>
<path d="M78.425 141.039L77.5744 142.512L81.7076 145.764L80.5968 147.688L76.4699 144.425L75.3083 146.437L73.4063 145.339L74.7266 143.052L71.8818 140.794L70.6947 142.85L68.7817 141.746L70.1274 139.415L65.9409 136.104L67.0454 134.191L71.2319 137.502L72.0888 136.018L67.9023 132.706L69.0068 130.793L73.1933 134.105L74.3296 132.137L76.2426 133.241L74.9477 135.484L77.7925 137.742L78.9478 135.741L80.8498 136.839L79.5359 139.115L83.6627 142.377L82.5519 144.301L78.425 141.039ZM75.8311 141.139L76.688 139.655L73.8368 137.408L72.9862 138.881L75.8311 141.139Z" fill="#DADADA"/>
</svg>
