<svg width="356" height="356" viewBox="0 0 356 356" fill="none" xmlns="http://www.w3.org/2000/svg">
<path d="M356 178C356 276.307 276.307 356 178 356C79.6933 356 0 276.307 0 178C0 79.6933 79.6933 0 178 0C276.307 0 356 79.6933 356 178Z" fill="#DADADA"/>
<path d="M180.252 31H177.992V15.3467L174.107 17.0859V14.9531L179.896 12.4268H180.252V31Z" fill="black"/>
<path d="M202.771 330.205L205.386 330.205L206.249 325L207.95 325L207.087 330.205L209.563 330.205L209.563 331.944L206.795 331.944L206.046 336.438L208.75 336.438L208.75 338.203L205.754 338.203L204.878 343.484L203.177 343.484L204.053 338.203L201.438 338.203L200.562 343.484L198.848 343.484L199.724 338.203L197.667 338.203L197.667 336.438L200.016 336.438L200.765 331.944L198.467 331.944L198.467 330.205L201.057 330.205L201.92 325L203.634 325L202.771 330.205ZM205.094 331.944L202.479 331.944L201.729 336.438L204.345 336.438L205.094 331.944Z" fill="black"/>
<path d="M186.73 331.208L184.674 331.208L184.674 329.291L186.73 329.291L186.73 325L188.977 325L188.977 329.291L195.96 329.291L195.96 330.675L189.092 343.484L186.73 343.484L186.73 331.208ZM193.471 331.208L188.977 331.208L188.977 339.993L193.471 331.208Z" fill="black"/>
<path d="M181.316 323.413L183.22 323.413L176.733 343.484L174.841 343.484L181.316 323.413Z" fill="black"/>
<path d="M162.076 331.208C162.076 329.067 162.462 327.454 163.232 326.371C164.002 325.288 165.119 324.746 166.583 324.746C168.039 324.746 169.131 325.372 169.859 326.625L169.973 325L172.017 325L172.017 344.5L169.783 344.5L169.783 337.226C169.046 338.402 167.988 338.99 166.609 338.99C165.102 338.99 163.972 338.457 163.219 337.391C162.466 336.324 162.085 334.716 162.076 332.566L162.076 331.208ZM164.311 332.49C164.311 334.115 164.539 335.271 164.996 335.956C165.445 336.65 166.177 336.997 167.193 336.997C168.352 336.997 169.215 336.371 169.783 335.118L169.783 328.58C169.224 327.344 168.352 326.727 167.167 326.727C166.152 326.727 165.424 327.082 164.984 327.793C164.544 328.504 164.319 329.608 164.311 331.106L164.311 332.49Z" fill="black"/>
<path d="M158.224 334.268L157.424 343.484L149.388 343.484L149.388 341.313L155.532 341.313L155.964 336.273C155.202 336.807 154.381 337.073 153.501 337.073C152.062 337.073 150.932 336.515 150.111 335.397C149.29 334.28 148.88 332.778 148.88 330.891C148.88 328.978 149.328 327.476 150.226 326.384C151.114 325.292 152.337 324.746 153.895 324.746C155.283 324.746 156.412 325.199 157.284 326.104C158.156 327.01 158.655 328.263 158.782 329.862L156.675 329.862C156.548 328.804 156.247 328.005 155.773 327.463C155.291 326.93 154.665 326.663 153.895 326.663C153.023 326.663 152.342 327.04 151.851 327.793C151.36 328.555 151.114 329.579 151.114 330.865C151.114 332.076 151.381 333.062 151.914 333.823C152.439 334.585 153.15 334.966 154.047 334.966C154.792 334.966 155.388 334.771 155.837 334.382L156.434 333.785L158.224 334.268Z" fill="black"/>
<path d="M252.84 40.5586L258.141 32.9766L265.101 36.9946L264.015 38.8747L258.694 35.8024L255.8 39.9514C256.726 39.8705 257.571 40.0501 258.333 40.4902C259.579 41.2096 260.278 42.2583 260.431 43.6363C260.583 45.0143 260.187 46.5205 259.244 48.155C258.287 49.8115 257.148 50.8883 255.825 51.3852C254.509 51.8864 253.177 51.7477 251.829 50.969C250.627 50.275 249.874 49.318 249.572 48.0978C249.27 46.8777 249.464 45.5432 250.154 44.0944L251.979 45.1481C251.56 46.1278 251.42 46.9707 251.56 47.6768C251.711 48.3797 252.12 48.9238 252.787 49.3089C253.542 49.7447 254.32 49.7592 255.122 49.3523C255.928 48.9381 256.653 48.1739 257.296 47.0598C257.901 46.0117 258.163 45.0245 258.082 44.0982C258.009 43.1762 257.583 42.4909 256.807 42.0423C256.161 41.6699 255.547 41.5402 254.964 41.653L254.149 41.8714L252.84 40.5586Z" fill="black"/>
<path d="M308.571 109.864L303.404 100.914L304.867 100.07L313.548 101.142C314.877 101.293 315.914 101.33 316.66 101.251C317.418 101.175 318.13 100.944 318.797 100.559C319.647 100.068 320.222 99.4728 320.521 98.7723C320.82 98.0718 320.784 97.3991 320.411 96.7541C319.942 95.9405 319.296 95.473 318.473 95.3518C317.662 95.2336 316.729 95.4792 315.673 96.0886L314.55 94.1426C316.023 93.292 317.447 93.0075 318.821 93.289C320.196 93.5705 321.283 94.4039 322.083 95.7892C322.819 97.0646 323.006 98.2951 322.645 99.4809C322.292 100.662 321.466 101.628 320.169 102.377C318.585 103.291 316.237 103.547 313.122 103.147L306.404 102.276L310.232 108.905L308.571 109.864Z" fill="black"/>
<path d="M343.379 181.382L341.386 181.382L341.386 181.014C341.352 179.516 340.844 178.343 339.862 177.497C338.889 176.651 337.421 176.164 335.457 176.037C336.49 176.858 337.006 177.908 337.006 179.186C337.006 180.548 336.443 181.627 335.317 182.423C334.2 183.227 332.732 183.629 330.912 183.629C328.974 183.629 327.442 183.185 326.316 182.296C325.191 181.416 324.628 180.231 324.628 178.741C324.628 177.243 325.292 176.037 326.621 175.123C327.95 174.209 329.715 173.752 331.915 173.752L332.816 173.752C335.355 173.752 337.378 174.027 338.885 174.577C340.391 175.127 341.508 175.936 342.236 177.002C342.973 178.077 343.354 179.41 343.379 181.001L343.379 181.382ZM335.051 178.805C335.051 178.195 334.818 177.632 334.353 177.116C333.887 176.6 333.295 176.228 332.575 175.999L331.648 175.999C330.15 175.999 328.927 176.261 327.979 176.786C327.04 177.319 326.57 177.971 326.57 178.741C326.57 179.579 326.955 180.235 327.726 180.709C328.504 181.183 329.528 181.42 330.798 181.42C332.05 181.42 333.07 181.183 333.857 180.709C334.653 180.235 335.051 179.6 335.051 178.805Z" fill="black"/>
<path d="M315.314 255.092L314.597 256.334C314.135 257.133 314.026 257.89 314.267 258.606C314.508 259.322 315.054 259.926 315.904 260.417C317.781 261.5 319.138 261.316 319.976 259.865C320.378 259.168 320.44 258.476 320.163 257.789C319.886 257.101 319.337 256.52 318.516 256.046L319.633 254.111C320.916 254.851 321.747 255.849 322.127 257.104C322.509 258.371 322.349 259.613 321.647 260.83C320.919 262.09 319.946 262.862 318.727 263.146C317.515 263.433 316.187 263.16 314.743 262.326C314.003 261.899 313.422 261.305 313.002 260.544C312.584 259.795 312.403 259.025 312.458 258.236C311.029 259.424 309.343 259.458 307.401 258.336C305.972 257.511 305.063 256.454 304.674 255.164C304.288 253.886 304.465 252.605 305.206 251.322C305.938 250.054 306.93 249.259 308.181 248.936C309.436 248.624 310.742 248.86 312.098 249.643L310.974 251.589C310.124 251.098 309.327 250.912 308.585 251.03C307.849 251.153 307.276 251.57 306.866 252.281C306.447 253.007 306.36 253.724 306.606 254.432C306.847 255.148 307.47 255.796 308.474 256.376C310.417 257.497 311.919 257.138 312.981 255.299L313.654 254.133L315.314 255.092Z" fill="black"/>
<path d="M254.722 323.366L251.648 305.322L253.682 304.147L256.462 321.658L263.598 317.538L264.562 319.209L255.382 324.51L254.722 323.366Z" fill="black"/>
<path d="M102.244 311.918C103.315 310.064 104.455 308.86 105.663 308.307C106.872 307.754 108.11 307.843 109.378 308.575C110.639 309.303 111.271 310.391 111.275 311.84L112.187 310.49L113.957 311.512L104.207 328.399L102.272 327.282L105.909 320.982C104.683 321.633 103.473 321.613 102.278 320.924C100.974 320.17 100.262 319.144 100.143 317.844C100.023 316.543 100.498 314.96 101.565 313.094L102.244 311.918ZM103.538 314.146C102.726 315.553 102.346 316.668 102.399 317.49C102.441 318.315 102.901 318.982 103.781 319.49C104.785 320.069 105.846 319.959 106.963 319.157L110.232 313.495C110.366 312.146 109.92 311.175 108.894 310.582C108.014 310.075 107.206 310.018 106.47 310.414C105.733 310.81 104.987 311.654 104.23 312.947L103.538 314.146Z" fill="black"/>
<path d="M93.8539 299.905L102.803 305.072L101.959 306.535L93.9052 309.947C92.6788 310.48 91.7623 310.968 91.1556 311.409C90.5374 311.853 90.0358 312.409 89.6507 313.076C89.1598 313.926 88.9599 314.73 89.051 315.486C89.1421 316.242 89.5102 316.806 90.1552 317.179C90.9688 317.649 91.7621 317.73 92.535 317.424C93.2964 317.121 93.9818 316.442 94.5912 315.386L96.5372 316.51C95.6866 317.983 94.5958 318.941 93.2648 319.385C91.9338 319.828 90.5757 319.65 89.1904 318.85C87.915 318.114 87.1372 317.142 86.8571 315.934C86.5727 314.734 86.805 313.485 87.554 312.188C88.4681 310.605 90.3739 309.208 93.2714 307.998L99.525 305.393L92.8954 301.566L93.8539 299.905Z" fill="black"/>
<path d="M45.3008 255.54C47.1552 254.47 48.744 253.997 50.0673 254.122C51.3906 254.248 52.4183 254.944 53.1504 256.212C53.8782 257.473 53.8817 258.732 53.1609 259.988L54.6253 259.275L55.6473 261.045L38.7598 270.795L37.6426 268.86L43.9424 265.223C42.5554 265.173 41.517 264.551 40.8273 263.356C40.074 262.052 39.9708 260.807 40.5177 259.621C41.0646 258.436 42.2669 257.302 44.1243 256.219L45.3008 255.54ZM45.3075 258.116C43.9002 258.929 43.014 259.704 42.6488 260.443C42.272 261.178 42.3376 261.986 42.8454 262.866C43.4251 263.87 44.3992 264.304 45.7675 264.169L51.4296 260.9C52.2205 259.798 52.3197 258.734 51.7272 257.708C51.2194 256.829 50.5476 256.376 49.7119 256.35C48.8761 256.325 47.8075 256.683 46.5059 257.425L45.3075 258.116Z" fill="black"/>
<path d="M29.2786 252.367L31.0047 251.371L31.1888 251.689C31.9672 252.97 32.993 253.731 34.2665 253.973C35.5325 254.22 37.0476 253.907 38.8115 253.035C37.5068 252.84 36.535 252.189 35.896 251.083C35.2147 249.903 35.1625 248.687 35.7396 247.435C36.3051 246.18 37.3758 245.098 38.9516 244.188C40.6301 243.219 42.179 242.838 43.5981 243.044C45.0131 243.244 46.0929 243.989 46.8377 245.279C47.5868 246.576 47.6144 247.953 46.9207 249.409C46.227 250.865 44.9273 252.143 43.0215 253.243L42.2409 253.694C40.042 254.963 38.1527 255.736 36.573 256.013C34.9932 256.29 33.6216 256.149 32.458 255.589C31.2829 255.026 30.2866 254.062 29.469 252.697L29.2786 252.367ZM37.7795 250.435C38.0842 250.963 38.5672 251.334 39.2285 251.548C39.8897 251.763 40.589 251.789 41.3263 251.627L42.1289 251.164C43.4262 250.415 44.3542 249.576 44.9127 248.647C45.4597 247.716 45.5407 246.917 45.1556 246.25C44.7366 245.524 44.0752 245.149 43.1712 245.123C42.2599 245.102 41.2545 245.409 40.1551 246.044C39.0703 246.67 38.3056 247.385 37.8609 248.189C37.4089 248.997 37.3818 249.746 37.7795 250.435Z" fill="black"/>
<path d="M24.792 179.307C26.9333 179.307 28.5456 179.692 29.6289 180.462C30.7122 181.232 31.2539 182.349 31.2539 183.813C31.2539 185.269 30.6276 186.361 29.375 187.089L31 187.203L31 189.247L11.5 189.247L11.5 187.013L18.7744 187.013C17.598 186.276 17.0098 185.218 17.0098 183.839C17.0098 182.332 17.543 181.202 18.6094 180.449C19.6758 179.696 21.2839 179.315 23.4336 179.307L24.792 179.307ZM23.5098 181.541C21.8848 181.541 20.7295 181.77 20.0439 182.227C19.3499 182.675 19.0029 183.407 19.0029 184.423C19.0029 185.582 19.6292 186.446 20.8818 187.013L27.4199 187.013C28.6556 186.454 29.2734 185.582 29.2734 184.397C29.2734 183.382 28.918 182.654 28.207 182.214C27.4961 181.774 26.3916 181.549 24.8936 181.541L23.5098 181.541Z" fill="black"/>
<path d="M20.6152 173.499L20.6152 172.064C20.6152 171.142 20.3317 170.431 19.7647 169.931C19.1976 169.432 18.4232 169.182 17.4414 169.182C15.2747 169.182 14.1914 170.02 14.1914 171.696C14.1914 172.5 14.4834 173.131 15.0674 173.588C15.6514 174.045 16.4173 174.273 17.3652 174.273L17.3652 176.508C15.8841 176.508 14.6654 176.059 13.709 175.162C12.7441 174.256 12.2617 173.101 12.2617 171.696C12.2617 170.24 12.7188 169.085 13.6328 168.23C14.5384 167.375 15.8249 166.948 17.4922 166.948C18.347 166.948 19.1468 167.172 19.8916 167.621C20.6279 168.061 21.1696 168.636 21.5166 169.347C22.1598 167.604 23.6029 166.732 25.8457 166.732C27.4961 166.732 28.8122 167.193 29.7939 168.116C30.7673 169.03 31.2539 170.228 31.2539 171.709C31.2539 173.173 30.7926 174.358 29.8701 175.263C28.9391 176.161 27.6908 176.609 26.125 176.609L26.125 174.362C27.1068 174.362 27.8897 174.125 28.4736 173.651C29.0492 173.177 29.3369 172.53 29.3369 171.709C29.3369 170.871 29.0534 170.206 28.4863 169.716C27.9193 169.216 27.056 168.967 25.8965 168.967C23.6536 168.967 22.5322 170.029 22.5322 172.153L22.5322 173.499L20.6152 173.499Z" fill="black"/>
<path d="M44.5517 102.832C46.4061 103.903 47.6099 105.043 48.163 106.251C48.7161 107.46 48.6266 108.698 47.8945 109.966C47.1666 111.227 46.0783 111.859 44.6296 111.863L45.9798 112.775L44.9578 114.545L28.0703 104.795L29.1875 102.86L35.4873 106.497C34.8367 105.271 34.8562 104.061 35.546 102.866C36.2993 101.561 37.326 100.85 38.6261 100.73C39.9263 100.611 41.5094 101.086 43.3753 102.153L44.5517 102.832ZM42.3241 104.126C40.9168 103.314 39.8021 102.934 38.9798 102.987C38.1545 103.028 37.488 103.489 36.9801 104.368C36.4004 105.373 36.5111 106.433 37.3124 107.551L42.9746 110.82C44.324 110.954 45.2949 110.508 45.8874 109.482C46.3952 108.602 46.4513 107.794 46.0556 107.058C45.66 106.321 44.8156 105.574 43.5225 104.818L42.3241 104.126Z" fill="black"/>
<path d="M41.63 85.9807L53.3144 100.071L52.1401 102.105L40.9771 88.3303L36.8575 95.4657L35.1863 94.5009L40.4866 85.3205L41.63 85.9807Z" fill="black"/>
<path d="M105.176 43.4368L106.957 42.4085L107.916 44.0687L106.135 45.097L108.28 48.8131L106.334 49.9367L104.189 46.2205L98.1416 49.7117L97.4497 48.5133L96.9929 33.9858L99.0379 32.8052L105.176 43.4368ZM99.338 46.8074L103.23 44.5604L98.8375 36.9522L99.338 46.8074Z" fill="black"/>
</svg>
